<?xml version="1.0" encoding="UTF-8"?>
<svg width="500px" height="500px" viewBox="0 0 500 500" version="1.1" xmlns="http://www.w3.org/2000/svg" xmlns:xlink="http://www.w3.org/1999/xlink">
    <title>Frame</title>
    <defs>
        <path d="M0,0 L500,0 L500,500 L0,500 L0,0 Z" id="path-1"></path>
        <filter x="-0.3%" y="-0.3%" width="100.6%" height="100.6%" filterUnits="objectBoundingBox" id="filter-2">
            <feGaussianBlur stdDeviation="1" in="SourceAlpha" result="shadowBlurInner1"></feGaussianBlur>
            <feOffset dx="0" dy="1" in="shadowBlurInner1" result="shadowOffsetInner1"></feOffset>
            <feComposite in="shadowOffsetInner1" in2="SourceAlpha" operator="arithmetic" k2="-1" k3="1" result="shadowInnerInner1"></feComposite>
            <feColorMatrix values="0 0 0 0 0   0 0 0 0 0   0 0 0 0 0  0 0 0 0.25 0" type="matrix" in="shadowInnerInner1"></feColorMatrix>
        </filter>
    </defs>
    <g id="Frame" stroke="none" fill="none" xlink:href="#path-1">
        <use fill="#FFFFFF" fill-rule="evenodd" xlink:href="#path-1"></use>
        <use fill="black" fill-opacity="1" filter="url(#filter-2)" xlink:href="#path-1"></use>
        <g id="Group" stroke-width="1" fill-rule="evenodd" transform="translate(0, 28)" fill="#000000">
            <path d="M199.6,25 C245.835469,25 286.145313,50.15625 307.742656,87.65625 C319.593906,79.6875 333.940156,75 349.3,75 C390.623438,75 424.15,108.59375 424.15,150 C424.15,159.53125 422.356719,168.671875 419.16,177.03125 C464.69375,186.25 499,226.640625 499,275 C499,330.234375 454.323906,375 399.2,375 L112.275,375 C50.2898438,375 0,324.609375 0,262.5 C0,213.4375 31.3434375,171.71875 75.0059375,156.328125 C74.9279687,154.21875 74.85,152.109375 74.85,150 C74.85,80.9375 130.675625,25 199.6,25 Z M250,200.09668 C247.501302,201.791992 245.002604,203.840495 242.503906,206.242188 C240.005208,208.64388 237.638021,210.904297 235.402344,213.023438 C232.772135,215.566406 229.583008,218.815755 225.834961,222.771484 C222.086914,226.727214 218.207357,231.071452 214.196289,235.804199 C210.185221,240.536947 206.141276,245.552246 202.064453,250.850098 C197.98763,256.147949 194.371094,261.410482 191.214844,266.637695 C188.058594,271.864909 185.494141,276.880208 183.521484,281.683594 C181.548828,286.486979 180.5625,290.795898 180.5625,294.610352 C180.5625,296.376302 180.792643,297.965658 181.25293,299.378418 C181.581706,300.791178 182.469401,302.16862 183.916016,303.510742 C185.36263,304.852865 186.907878,306.265625 188.551758,307.749023 C190.195638,309.232422 191.872396,310.539225 193.582031,311.669434 C195.291667,312.799642 196.705404,313.717936 197.823242,314.424316 C205.845378,319.580892 214.229167,323.465983 222.974609,326.07959 C231.720052,328.693197 240.728516,330 250,330 C259.271484,329.929362 268.312826,328.58724 277.124023,325.973633 C285.935221,323.360026 294.286133,319.510254 302.176758,314.424316 C304.675456,312.799642 307.174154,311.06901 309.672852,309.232422 C312.171549,307.395833 314.440104,305.38265 316.478516,303.192871 C317.596354,301.992025 318.352539,300.685221 318.74707,299.272461 C319.141602,297.859701 319.338867,296.340983 319.338867,294.716309 C319.273112,290.689941 318.221029,286.133789 316.182617,281.047852 C314.144206,275.961914 311.382487,270.699382 307.897461,265.260254 C304.412435,259.821126 300.565755,254.34668 296.357422,248.836914 C292.149089,243.327148 287.842122,238.064616 283.436523,233.049316 C279.030924,228.034017 274.855469,223.513184 270.910156,219.486816 C266.964844,215.460449 263.611328,212.140462 260.849609,209.526855 C259.074219,207.902181 257.298828,206.242188 255.523438,204.546875 C253.748047,202.851562 251.906901,201.368164 250,200.09668 Z M182.140625,143.621582 C181.811849,143.69222 181.318685,143.762858 180.661133,143.833496 C180.003581,143.904134 179.510417,144.080729 179.181641,144.363281 C174.315755,149.166667 170.041667,154.570475 166.359375,160.574707 C162.677083,166.578939 159.520833,172.936361 156.890625,179.646973 C154.260417,186.357585 152.28776,193.280111 150.972656,200.414551 C149.657552,207.548991 149,214.577474 149,221.5 C149,233.791016 150.742513,245.375651 154.227539,256.253906 C157.712565,267.132161 162.841471,277.480632 169.614258,287.299316 L170.008789,287.51123 L170.206055,287.405273 L170.304688,287.193359 C169.910156,286.063151 169.647135,284.791667 169.515625,283.378906 C169.384115,281.966146 169.318359,280.659342 169.318359,279.458496 C169.384115,274.513835 170.304688,269.004069 172.080078,262.929199 C173.855469,256.854329 176.222656,250.496908 179.181641,243.856934 C182.140625,237.21696 185.494141,230.541667 189.242188,223.831055 C192.990234,217.120443 196.836914,210.621745 200.782227,204.334961 C204.727539,198.048177 208.574219,192.255859 212.322266,186.958008 C216.070312,181.660156 219.390951,177.139323 222.28418,173.395508 L222.382812,173.077637 L222.28418,172.653809 C220.77181,171.099772 219.095052,169.333822 217.253906,167.355957 C215.41276,165.378092 213.275716,163.294271 210.842773,161.104492 C208.409831,158.914714 205.976888,156.795573 203.543945,154.74707 C201.111003,152.698568 198.612305,150.82666 196.047852,149.131348 C193.483398,147.436035 191.017578,146.093913 188.650391,145.10498 C186.283203,144.116048 184.113281,143.621582 182.140625,143.621582 Z M317.760742,143.621582 C315.722331,143.550944 313.552409,144.080729 311.250977,145.210938 C308.949544,146.341146 306.483724,147.683268 303.853516,149.237305 C301.223307,150.791341 298.691732,152.663249 296.258789,154.853027 C293.825846,157.042806 291.425781,159.197266 289.058594,161.316406 C286.691406,163.435547 284.554362,165.484049 282.647461,167.461914 C280.74056,169.439779 279.09668,171.17041 277.71582,172.653809 L277.617188,172.97168 L277.71582,173.289551 C280.674805,177.104004 284.02832,181.660156 287.776367,186.958008 C291.524414,192.255859 295.371094,198.012858 299.316406,204.229004 C303.261719,210.44515 307.108398,216.943848 310.856445,223.725098 C314.604492,230.506348 317.958008,237.21696 320.916992,243.856934 C323.875977,250.496908 326.243164,256.854329 328.018555,262.929199 C329.793945,269.004069 330.681641,274.478516 330.681641,279.352539 C330.681641,279.705729 330.648763,280.270833 330.583008,281.047852 C330.517253,281.82487 330.451497,282.601888 330.385742,283.378906 C330.319987,284.155924 330.221354,284.897624 330.089844,285.604004 C329.958333,286.310384 329.793945,286.80485 329.59668,287.087402 L329.793945,287.405273 L330.385742,287.299316 C337.158529,277.55127 342.287435,267.202799 345.772461,256.253906 C349.257487,245.305013 351,233.720378 351,221.5 C350.934245,214.36556 350.243815,207.266439 348.928711,200.202637 C347.613607,193.138835 345.673828,186.286947 343.109375,179.646973 C340.544922,173.006999 337.388672,166.720215 333.640625,160.786621 C329.892578,154.853027 325.61849,149.378581 320.818359,144.363281 C320.423828,144.010091 319.930664,143.798177 319.338867,143.727539 C318.74707,143.656901 318.221029,143.621582 317.760742,143.621582 Z M250,113 C240.39974,113.070638 231.259766,114.448079 222.580078,117.132324 C213.900391,119.816569 205.450846,123.807617 197.231445,129.105469 L197.03418,129.42334 L197.03418,129.635254 C197.099935,129.705892 197.264323,129.741211 197.527344,129.741211 C198.447917,129.741211 199.565755,129.599935 200.880859,129.317383 C202.195964,129.034831 203.47819,128.893555 204.727539,128.893555 C208.212565,128.893555 211.927734,129.388021 215.873047,130.376953 C219.818359,131.365885 223.862305,132.63737 228.004883,134.191406 C232.147461,135.745443 236.092773,137.476074 239.84082,139.383301 C243.588867,141.290527 246.876628,143.197754 249.704102,145.10498 L250.197266,145.10498 C251.578125,144.04541 252.991862,143.162435 254.438477,142.456055 C255.885091,141.749674 257.331706,141.007975 258.77832,140.230957 C261.671549,138.818197 264.564779,137.440755 267.458008,136.098633 C270.351237,134.75651 273.375977,133.555664 276.532227,132.496094 C279.688477,131.436523 282.844727,130.588867 286.000977,129.953125 C289.157227,129.317383 292.280599,128.999512 295.371094,128.999512 L297.146484,128.999512 C297.738281,128.999512 298.330078,129.034831 298.921875,129.105469 C299.447917,129.246745 300.006836,129.388021 300.598633,129.529297 C301.19043,129.670573 301.749349,129.741211 302.275391,129.741211 C302.472656,129.741211 302.669922,129.564616 302.867188,129.211426 L302.571289,128.999512 C294.549154,123.70166 286.132487,119.710612 277.321289,117.026367 C268.510091,114.342122 259.402995,113 250,113 Z" id="Combined-Shape" fill-rule="nonzero"></path>
        </g>
    </g>
</svg>